<?xml version="1.0" encoding="UTF-8"?>
<svg id="Layer_2" data-name="Layer 2" xmlns="http://www.w3.org/2000/svg" viewBox="0 0 3646.46 733">
  <defs>
    <style>
      .cls-1 {
        fill: #00cecb;
      }
    </style>
  </defs>
  <g id="Layer_1-2" data-name="Layer 1">
    <g>
      <path class="cls-1" d="m0,366C0,154,164,0,386,0s386,154,386,366-164,367-386,367S0,579,0,366Zm545.8-109c0-48.9-37.9-84.5-89.2-84.5s-89.1,35.6-89.1,84.5,37.9,84.8,89.1,84.8,89.2-35.6,89.2-84.8Z"/>
      <path class="cls-1" d="m842,617V117c0-65,35-100,100-100h226.7c261.6,0,354.3,110.6,354.3,272.1,0,95-46.2,164.9-110.4,205.5l109.1,122.4c42.1,47.2,32.1,100-37.1,100h-542.6c-65,0-100-35-100-100Zm496.8-358.5c0-48.9-37.9-84.5-89.2-84.5s-89.1,35.6-89.1,84.5,37.9,84.8,89.1,84.8,89.2-35.6,89.2-84.8Z"/>
      <path class="cls-1" d="m1607,617V117c0-65,35-100,100-100h167c144.5,0,211.8,67,211.8,161.6,0,25.1-6,49.7-17.7,73.4,129.8,10.1,224.3,98.3,224.3,223.9,0,143.6-90.5,241.1-289.2,241.1h-296.2c-65,0-100-35-100-100Zm518.3-135.9c0-44.6-34.5-77-81.3-77s-81.2,32.4-81.2,77,34.5,77.3,81.2,77.3,81.3-32.5,81.3-77.3Z"/>
      <path class="cls-1" d="m2361.98,617V117c0-65,35-100,100-100h131c65,0,100,35,100,100v133h136c65,0,100,35,100,100v267c0,65-35,100-100,100h-367c-65,0-100-35-100-100Z"/>
      <path class="cls-1" d="m3097.19,617v-98.8l-200.9-380.8c-37.7-71.4-13.5-120.4,67.3-120.4h598.2c80.8,0,105,49,67.3,120.4l-200.9,380.8v98.8c0,65-35,100-100,100h-131c-65,0-100-35-100-100Zm290.7-376.7c0-48.9-37.9-84.5-89.3-84.5s-89.1,35.6-89.1,84.5,37.9,84.8,89.1,84.8,89.3-35.6,89.3-84.8Z"/>
    </g>
  </g>
</svg>